# xmcd
#
# Track frame offsets: 
#        150
#        13025
#        25337
#        37825
#        48775
#        61687
#        75575
#        89637
#        104075
#        118137
#        130550
#        142650
#        154962
#        166812
#        179112
#        190125
#        201487
#        215837
#        229162
#        239025
#        248475
#        259800
#        273012
#        285475
#        298125
#
# Disc length: 4150 seconds
#
# Revision: 0
# Processed by: cddbd v1.5.2PL0 Copyright (c) Steve Scherf et al.
# Submitted via: ExactAudioCopy v0.99pb4
#
DISCID=6b103419
DTITLE=Mercy Dee Walton - Danger Zone
DYEAR=1955
DGENRE=Blues
TTITLE0=GI Fever
TTITLE1=Lonesome Cabin Blues
TTITLE2=Evil and Hanky
TTITLE3=Travellin' Alone Blues
TTITLE4=Homely Baby
TTITLE5=Empty Life
TTITLE6=Please Understand
TTITLE7=Bird Brain Baby
TTITLE8=Big Foot Country
TTITLE9=Crepe on Your Door (Danger Zone)
TTITLE10=Roamin' Blues
TTITLE11=Straight and Narrow
TTITLE12=Bought Love
TTITLE13=Old Fashioned Ways
TTITLE14=Happy Bachelor
TTITLE15=Anythig in the World (Pay Off)
TTITLE16=Trailing My Baby
TTITLE17=The Main Event (instr)
TTITLE18=Romp and Stomp BLues
TTITLE19=Oh Oh Please
TTITLE20=Come Back Maybellene
TTITLE21=True Love
TTITLE22=Have You Ever
TTITLE23=Have You Ever (alt)
TTITLE24=Stubborn Woman
EXTD=
EXTT0=
EXTT1=
EXTT2=
EXTT3=
EXTT4=
EXTT5=
EXTT6=
EXTT7=
EXTT8=
EXTT9=
EXTT10=
EXTT11=
EXTT12=
EXTT13=
EXTT14=
EXTT15=
EXTT16=
EXTT17=
EXTT18=
EXTT19=
EXTT20=
EXTT21=
EXTT22=
EXTT23=
EXTT24=
PLAYORDER=
